#!OML:ASF X:\für Bonn\!DataBase\2005_08_10_Bjorn_Final\c3d\bjorn.ASF
:FULLY-SPECIFIED
:DEGREES
435
root 1.25471 18.899 10.4187 -181.802 13.1492 174.618
lowerback 0.489019 0.771997 2.22921
upperback 13.6667 2.75004 -0.285125
thorax 14.8184 2.33343 -1.02831
lowerneck -1.95463 -1.66728 5.37713
upperneck 21.0163 2.83725 -16.6986
head 6.89586 1.37662 -6.16171
rclavicle 8.34896e-015 7.95139e-015
rhumerus -61.6397 -23.9712 -51.3503
rradius 16.528
rwrist 25.4254
rhand -9.20997 -2.92105
rfingers 7.12502
rthumb 16.7443 -32.219
lclavicle 8.34896e-015 7.95139e-015
lhumerus 127.796 163.033 243.596
lradius 12.4106
lwrist -48.1735
lhand 7.00023 -0.789354
lfingers 7.12502
lthumb 32.2759 26.3609
rfemur 525.164 -169.31 -527.081
rtibia 39.0581
rfoot -20.1136 14.0821
rtoes -14.1597
lfemur 344.568 6.90993 339.311
ltibia 42.8505
lfoot -19.14 6.75052
ltoes -22.8857
436
root 1.24547 18.8884 10.4775 -181.745 12.9858 174.791
lowerback 0.584346 0.732389 2.26295
upperback 13.7028 2.70649 -0.234672
thorax 14.7985 2.31965 -0.99785
lowerneck -1.82151 -1.60357 5.36783
upperneck 20.6478 2.82446 -16.6813
head 6.75196 1.3723 -6.14252
rclavicle 9.93923e-015 -1.19271e-014
rhumerus -61.1065 -23.8444 -51.573
rradius 16.3453
rwrist 26.0069
rhand -8.82264 -2.69861
rfingers 7.12502
rthumb 17.1172 -31.9646
lclavicle 9.93923e-015 -1.19271e-014
lhumerus 128.329 163.146 244.13
lradius 12.4248
lwrist -48.494
lhand 7.6716 -0.379395
lfingers 7.12502
lthumb 32.9147 26.6388
rfemur 524.849 -169.328 -526.841
rtibia 39.289
rfoot -20.0748 13.9068
rtoes -14.1072
lfemur 345.196 7.042 339.337
ltibia 43.3797
lfoot -19.3644 6.8247
ltoes -22.4642
437
root 1.23579 18.8784 10.5355 -181.698 12.8133 175.011
lowerback 0.701182 0.700068 2.35854
upperback 13.7294 2.66899 -0.191313
thorax 14.757 2.31657 -1.01015
lowerneck -1.64224 -1.54826 5.44755
upperneck 20.2573 2.79753 -16.7034
head 6.59146 1.36816 -6.15338
rclavicle 2.14687e-014 -3.49861e-014
rhumerus -60.6393 -23.9061 -51.6269
rradius 16.1411
rwrist 26.7777
rhand -8.59961 -2.41922
rfingers 7.12502
rthumb 17.3318 -31.6664
lclavicle 2.14687e-014 -3.49861e-014
lhumerus 128.924 163.227 244.571
lradius 12.3536
lwrist -48.9988
lhand 8.07383 -0.125915
lfingers 7.12502
lthumb 33.2972 26.8111
rfemur 524.576 -169.319 -526.556
rtibia 39.4869
rfoot -20.0465 13.7205
rtoes -14.199
lfemur 345.859 7.16577 339.433
ltibia 43.8989
lfoot -19.5331 6.9717
ltoes -22.4515
438
root 1.2263 18.8692 10.5933 -181.641 12.6615 175.282
lowerback 0.791383 0.661775 2.48153
upperback 13.7781 2.62288 -0.121963
thorax 14.7595 2.31261 -1.00711
lowerneck -1.55831 -1.46632 5.43756
upperneck 19.9055 2.81281 -16.6851
head 6.46683 1.37464 -6.13363
rclavicle -1.51076e-014 5.56597e-014
rhumerus -60.1281 -24.1755 -51.4401
rradius 15.9117
rwrist 27.791
rhand -8.49186 -1.87334
rfingers 7.12502
rthumb 17.4355 -31.1114
lclavicle -1.51076e-014 5.56597e-014
lhumerus 129.552 163.072 244.884
lradius 12.2743
lwrist -49.7774
lhand 8.36103 -0.0538004
lfingers 7.12502
lthumb 33.5702 26.8243
rfemur 524.313 -169.401 -526.205
rtibia 39.6567
rfoot -20.0127 13.4816
rtoes -14.1524
lfemur 346.54 7.27769 339.606
ltibia 44.3973
lfoot -19.7784 7.09533
ltoes -22.3578
439
root 1.21582 18.8612 10.6503 -181.598 12.4915 175.534
lowerback 0.87563 0.61031 2.59547
upperback 13.8287 2.56284 -0.076436
thorax 14.7685 2.30336 -1.02655
lowerneck -1.45813 -1.37383 5.45223
upperneck 19.5337 2.8338 -16.6613
head 6.3341 1.38609 -6.11602
rclavicle 5.20816e-014 -1.19271e-014
rhumerus -59.6348 -24.6865 -51.0369
rradius 15.6572
rwrist 29.1835
rhand -8.31685 -1.4378
rfingers 7.12502
rthumb 17.6039 -30.6608
lclavicle 5.20816e-014 -1.19271e-014
lhumerus 130.226 162.798 245.108
lradius 12.1554
lwrist -50.6327
lhand 8.19946 -0.213857
lfingers 7.12502
lthumb 33.4167 26.6975
rfemur 524.082 -169.422 -525.891
rtibia 39.7991
rfoot -19.9566 13.2934
rtoes -14.163
lfemur 347.24 7.33821 339.762
ltibia 44.8672
lfoot -19.9486 7.33003
ltoes -22.5185
440
root 1.20523 18.8535 10.7078 -181.534 12.343 175.768
lowerback 0.937461 0.568916 2.67757
upperback 13.8625 2.51276 -0.0347502
thorax 14.77 2.29259 -1.03167
lowerneck -1.38086 -1.28009 5.43332
upperneck 19.2145 2.87614 -16.6369
head 6.22525 1.40591 -6.09286
rclavicle -1.19271e-015 -1.19271e-014
rhumerus -59.075 -25.2872 -50.5903
rradius 15.4086
rwrist 30.715
rhand -8.04932 -1.25441
rfingers 7.12502
rthumb 17.8614 -30.4542
lclavicle -1.19271e-015 -1.19271e-014
lhumerus 130.918 162.474 245.321
lradius 12.0344
lwrist -51.5198
lhand 7.49833 -0.605635
lfingers 7.12502
lthumb 32.7499 26.447
rfemur 523.824 -169.492 -525.585
rtibia 39.9242
rfoot -19.8737 13.0762
rtoes -14.1667
lfemur 347.935 7.3673 339.911
ltibia 45.2933
lfoot -20.1533 7.61485
ltoes -22.623
441
root 1.19416 18.8479 10.764 -181.469 12.2058 175.966
lowerback 0.962 0.529928 2.71759
upperback 13.9025 2.46925 -0.00576495
thorax 14.8021 2.28087 -1.02474
lowerneck -1.33179 -1.18471 5.41555
upperneck 18.9134 2.91971 -16.6003
head 6.12763 1.42503 -6.06667
rclavicle -1.98785e-015 -2.78299e-014
rhumerus -58.5865 -26.2328 -49.7966
rradius 15.1708
rwrist 32.7122
rhand -7.69667 -1.16779
rfingers 7.12502
rthumb 18.2007 -30.3363
lclavicle -1.98785e-015 -2.78299e-014
lhumerus 131.638 162.182 245.576
lradius 12.0282
lwrist -52.6715
lhand 6.83263 -1.20972
lfingers 7.12502
lthumb 32.1164 25.9728
rfemur 523.56 -169.525 -525.327
rtibia 40.0419
rfoot -19.7909 12.9083
rtoes -14.0723
lfemur 348.639 7.38347 340.028
ltibia 45.6596
lfoot -20.3273 7.93599
ltoes -22.6652
